<svg xmlns="http://www.w3.org/2000/svg" viewBox="0 0 100 115.90909090909089" xmlns:xlink="http://www.w3.org/1999/xlink" version="1.1"  ><g transform="translate(49.5 57.954545454545446) scale(2.857142857142857)" id="hexagonSvgTemplate"><g fill="#000000"><g transform="translate(-17.325 -20.284090909090907) scale(0.3977272727272727)" id="container"><g fill="#000000"><polygon vector-effect="non-scaling-stroke" transform="translate(44.000000, 51.300001) rotate(90.000000) translate(-44.000000, -51.300001) " points="69 8 94 51.3000014 69 94.6000027 19 94.6000027 -6 51.3000014 19 8"></polygon></g></g><g transform="translate(-12.662353726945103 -13.355831361223158) scale(0.24813896251402)" id="icon"><g fill="#FFFFFF"><path d="M32.3 48.1s.1 0 .1.1c.6.3 1.5.5 2.6.5.9 0 1.9-.1 3.2-.4 5.7-1.5 9.8-7.6 10-7.9.2-.3.2-.6.1-.9s-.4-.5-.7-.6c0 0-.3-.1-.8-.2l2.9-3.3c1.6-1.8 1.5-4.6-.2-6.3-1.7-1.7-4.4-1.8-6.2-.2L40 31.8c-.1-.5-.2-.8-.2-.9-.1-.3-.3-.6-.6-.7-.3-.1-.6-.1-.9.1-.3.2-6.4 4.3-7.9 10-.7 2.6-.6 4.7.1 6.2.3.6.9 1.2 1.5 1.5.1 0 .2.1.3.1zm5.5-1.8c-.1 0-.2 0-.3.1.6-.7 1.2-1.6 1.8-2.7.6-1.1.9-2.3 1.1-3.6 2.1-.1 4.1.1 5.4.4-1.5 1.7-4.5 4.9-8 5.8zm6.9-15.9c1-.9 2.6-.8 3.5.1 1 1 1 2.5.1 3.5l-3.7 4.2c-1.1-.1-2.6-.2-4.1-.2.1-1.4 0-2.8-.2-3.9l4.4-3.7zM32.3 40.8c.9-3.5 4.1-6.5 5.9-7.9.4 2.2.9 6.6-.7 9.8-1.2 2.4-2.4 3.3-3.1 3.6-.4.1-.8.1-1.2 0-.4-.1-.7-.4-.9-.8-.4-.7-.7-2.1 0-4.7z"></path><path d="M32 69.9c.2 0 .4-.1.6-.2l5.1-4L35.5 84c-.1.5.3 1 .9 1.1l48.4 5.8h.1c.2 0 .4-.1.6-.2.2-.2.3-.4.4-.7l4.2-34.6c.1-.5-.3-1-.9-1.1l-32-3.9L71 39.6c.4-.3.5-1 .2-1.4L49.7 10.7c-.2-.2-.4-.3-.7-.4-.3 0-.5 0-.7.2L9.9 40.7c-.4.3-.5 1-.2 1.4l21.6 27.4c.1.3.4.4.7.4zm52.1 18.9l-46.5-5.6 3.9-32.7L88 56.1l-3.9 32.7zm-35.4-76L69 38.6 54.5 50.1l-13.6-1.6c-.3 0-.5 0-.7.2-.2.2-.3.4-.4.7L38 63l-5.8 4.6-20.3-25.9 36.8-28.9z"></path><path d="M58.7 82.9h.2l4.9.7h.1c5.6-.3 10-3.8 10.7-8.7.7-4.3-1.8-8.7-6.2-10.9-1.2-.6-1.8-1.6-2-3.1 0-.5.2-1.6.3-2.1.1-.3 0-.7-.2-.9-.2-.2-.5-.4-.9-.3l-1.8.2c-.5.1-.9.5-.9 1 0 .9-.2 1.5-.2 1.5-.5 1.4-1.5 2.2-3 2.4-5.2.9-8.8 4.7-9.1 9.4-.1 4.6 3.2 9 8.1 10.8zm3.8-2.1l2.3-16.1c.3 0 .5-.1.8-.1 1 1.6 3.2 5.8 2.2 9.9-.6 2.6-2.4 4.7-5.3 6.3zm-.1-16.6c.1.1.3.1.5.2l-2.4 16.3c-2.1-2.2-3.1-4.5-3-7 .1-4.5 3.6-8.2 4.9-9.5zm10.3 10.5c-.5 3.5-3.6 6.2-7.5 6.8 2.4-1.8 4-4 4.6-6.5.8-3.1.1-6.1-.9-8.4 2.8 2 4.3 5.1 3.8 8.1zm-8.2-13.2c.1.4.2.9.3 1.2-.3 0-.7 0-1-.1.3-.3.5-.7.7-1.1zM52.7 72.3c.2-3.3 2.6-6.1 6.1-7.2-1.6 2.1-3.3 5.1-3.4 8.5-.1 2.3.6 4.5 2 6.5-2.9-1.7-4.8-4.7-4.7-7.8z"></path></g></g></g></g></svg>